PathFileType	4	(X/Y/Z)	\\move.snu.ac.kr\motion\Animal\091204_091205_Bird\091205_bird\Project 2\Capture day 2\Session 1\pigeon_021.trc
DataRate	CameraRate	NumFrames	NumMarkers	Units	OrigDataRate	OrigDataStartFrame	OrigNumFrames
240.0	240.0	12	14	mm	240.0	209	2193
Frame#	Time	14MarkersBird:Head			14MarkersBird:C_back			14MarkersBird:Spine			14MarkersBird:L-shoulder			14MarkersBird:L-elbow			14MarkersBird:L-wrist			14MarkersBird:L-hand			14MarkersBird:R-shoulder			14MarkersBird:R-elbow			14MarkersBird:R-Wrist			14MarkersBird:R-hand			14MarkersBird:C_Tail			14MarkersBird:L-Tale			14MarkersBird:R-Tale			
		X1	Y1	Z1	X2	Y2	Z2	X3	Y3	Z3	X4	Y4	Z4	X5	Y5	Z5	X6	Y6	Z6	X7	Y7	Z7	X8	Y8	Z8	X9	Y9	Z9	X10	Y10	Z10	X11	Y11	Z11	X12	Y12	Z12	X13	Y13	Z13	X14	Y14	Z14	

1078	4.488	-1165.44385	853.52521	-2350.44360	-1106.54346	853.11896	-2346.02026	-1050.65894	843.13214	-2345.97949	-1133.10815	849.13519	-2328.67310	-1106.40356	867.17865	-2319.05054	-1125.43579	882.60596	-2280.94873	-1112.86829	901.04602	-2263.54224	-1132.97949	848.43549	-2370.00391	-1107.80981	872.76373	-2371.28125	-1121.57617	890.38519	-2409.74438	-1104.72546	917.42633	-2432.85962	-942.18726	787.72742	-2332.21533	-1017.66602	817.50708	-2251.97070	-1007.66370	816.92950	-2444.79272	
1079	4.492	-1181.87585	848.43298	-2351.60156	-1122.57727	847.50360	-2346.60352	-1066.78540	836.92065	-2346.78516	-1149.57690	843.71674	-2329.38867	-1124.35022	860.12152	-2316.49805	-1143.11511	872.11700	-2277.83350	-1133.65637	890.08575	-2258.62524	-1149.48816	842.47174	-2371.63428	-1125.16919	865.91400	-2375.48657	-1139.06714	880.19794	-2414.70068	-1126.32837	906.52972	-2440.27905	-958.46692	782.53949	-2331.95459	-1035.02979	811.01257	-2252.17212	-1024.20483	808.99792	-2445.00903	
1080	4.496	-1198.31995	843.40735	-2352.73218	-1138.67566	842.03210	-2347.08594	-1082.93762	831.05713	-2347.49805	-1166.04358	838.36328	-2330.05493	-1142.32764	852.50708	-2313.70654	-1161.64319	860.21765	-2275.22217	-1155.42236	876.26453	-2253.86011	-1166.05371	836.62262	-2373.09229	-1142.71191	858.48328	-2379.92676	-1157.50098	868.55554	-2419.31470	-1148.99634	892.13824	-2447.89795	-975.24915	776.57947	-2331.81934	-1052.23608	804.18872	-2252.49121	-1040.50806	800.74109	-2445.00293	
1081	4.500	-1214.79004	838.45471	-2353.80396	-1154.85974	836.76404	-2347.47241	-1099.16504	825.65680	-2348.04346	-1182.54480	833.06372	-2330.65186	-1160.36987	844.40900	-2310.98340	-1181.01550	847.24048	-2273.58008	-1178.00134	860.14941	-2250.06470	-1182.68494	830.92706	-2374.32544	-1160.47791	850.51086	-2384.26367	-1176.85449	855.71686	-2423.09717	-1172.45044	874.93402	-2454.69897	-992.50439	769.93829	-2331.81934	-1069.31177	797.29034	-2252.91357	-1056.61230	792.53906	-2444.80420	
1082	4.504	-1231.32825	833.57086	-2354.80884	-1171.15076	831.72583	-2347.76025	-1115.51648	820.83508	-2348.34717	-1199.13586	827.85748	-2331.19556	-1178.52258	835.95459	-2308.57202	-1201.14478	833.64185	-2273.25757	-1201.17700	842.59644	-2248.09448	-1199.36902	825.38934	-2375.29224	-1178.44019	842.13324	-2388.22461	-1196.96765	842.07556	-2425.63940	-1196.44067	855.73322	-2459.67529	-1010.19513	762.76819	-2331.96924	-1086.32947	790.44208	-2253.42480	-1072.56738	784.77240	-2444.47388	
1083	4.508	-1247.95105	828.73737	-2355.71973	-1187.58228	826.93457	-2347.97705	-1132.04150	816.70734	-2348.33472	-1215.85742	822.78168	-2331.68140	-1196.79517	827.33795	-2306.64990	-1221.80420	819.95459	-2274.39429	-1224.67395	824.40448	-2248.57129	-1216.15564	820.09351	-2376.03516	-1196.62585	833.52112	-2391.61792	-1217.63525	828.16882	-2426.70752	-1220.71570	835.54059	-2462.06128	-1028.22375	755.28137	-2332.28833	-1103.28198	783.72668	-2254.01929	-1088.45947	777.70892	-2444.10596	
1084	4.512	-1264.68616	823.94415	-2356.53516	-1204.15198	822.38892	-2348.16406	-1148.71179	813.22559	-2348.04541	-1232.72742	817.85278	-2332.12891	-1215.13916	818.78259	-2305.29370	-1242.70728	806.76495	-2276.94873	-1248.20691	806.43726	-2251.76025	-1233.03760	815.03607	-2376.60522	-1215.05920	824.81879	-2394.37524	-1238.60742	814.59998	-2426.21069	-1245.06213	815.37549	-2461.53394	-1046.48914	747.69348	-2332.83154	-1120.18433	777.11853	-2254.70996	-1104.36438	771.46295	-2443.77563	
1085	4.517	-1281.56201	819.14899	-2357.25757	-1220.92334	818.03351	-2348.36230	-1165.77380	809.79254	-2348.33203	-1249.75647	813.07813	-2332.54663	-1233.40759	810.48022	-2304.49072	-1263.57007	794.65704	-2280.67432	-1271.40247	789.59314	-2257.35205	-1250.03357	810.24084	-2377.07935	-1233.56824	816.31366	-2396.54468	-1259.56860	801.94873	-2424.30640	-1269.11658	796.19800	-2458.23779	-1064.88196	740.23187	-2333.61865	-1137.05627	770.56873	-2255.52026	-1120.36621	765.99976	-2443.55200	
1086	4.521	-1298.57593	814.33221	-2357.88867	-1237.86365	813.84454	-2348.60376	-1182.78784	806.02002	-2348.42529	-1266.93445	808.44647	-2332.95068	-1251.45935	802.66675	-2304.20215	-1284.09729	784.04498	-2285.16748	-1293.91077	774.61591	-2264.67871	-1267.12695	805.67596	-2377.45996	-1251.90979	808.34290	-2398.12036	-1280.23010	790.78052	-2421.36694	-1292.55127	778.89630	-2452.74927	-1083.25586	733.13348	-2334.66675	-1153.84705	764.04858	-2256.47656	-1136.53943	761.14246	-2443.46216	
1087	4.525	-1315.74365	809.47015	-2358.45166	-1254.97485	809.73663	-2348.89233	-1199.66663	802.14026	-2348.50586	-1284.25671	803.94678	-2333.37036	-1269.15637	795.54266	-2304.31885	-1304.11914	775.36072	-2289.98096	-1315.50305	761.99976	-2272.91260	-1284.33923	801.31854	-2377.77905	-1269.87927	801.13562	-2399.21680	-1300.36047	781.53033	-2417.85986	-1315.00049	764.11176	-2445.92334	-1101.52295	726.57587	-2335.94482	-1170.56165	757.48792	-2257.59766	-1152.95374	756.60529	-2443.49780	
1088	4.529	-1333.06873	804.53284	-2358.95923	-1272.28772	805.61597	-2349.24292	-1217.45654	796.95642	-2349.11523	-1301.72693	799.53174	-2333.82568	-1286.39661	789.26855	-2304.73389	-1323.47815	768.77441	-2294.59058	-1335.99316	752.02325	-2281.15796	-1301.66345	797.06042	-2378.04785	-1287.29980	794.88110	-2399.92358	-1319.79480	774.48431	-2414.31494	-1336.17346	752.26379	-2438.72412	-1119.62866	720.61823	-2337.38086	-1187.20325	750.84668	-2258.88940	-1169.66736	752.09595	-2443.63354	
1089	4.533	-1350.57324	799.50366	-2359.43994	-1289.81604	801.39386	-2349.65723	-1234.91272	792.57843	-2349.42407	-1319.33398	795.11530	-2334.34106	-1303.14990	783.94116	-2305.38159	-1342.06909	764.32861	-2298.52393	-1355.21069	744.74280	-2288.52295	-1319.15100	792.87494	-2378.32666	-1304.10498	789.70782	-2400.29297	-1338.43530	769.77167	-2411.21826	-1355.86011	743.55682	-2432.10742	-1137.58826	715.17828	-2338.87524	-1203.77893	744.11218	-2260.33130	-1186.71582	747.38928	-2443.82104	
